<svg width="16.000000" height="16.000000" viewBox="0 0 16 16" fill="none" xmlns="http://www.w3.org/2000/svg" xmlns:xlink="http://www.w3.org/1999/xlink">
	<desc>
			Created with Pixso.
	</desc>
	<defs>
		<clipPath id="clip24_168">
			<rect id="user 1" width="16.000000" height="16.000000" fill="white" fill-opacity="0"/>
		</clipPath>
	</defs>
	<rect id="user 1" width="16.000000" height="16.000000" fill="#FFFFFF" fill-opacity="0"/>
	<g clip-path="url(#clip24_168)">
		<path id="Vector" d="M7.88599 7.70728C8.94482 7.70728 9.86157 7.32739 10.6108 6.57812C11.3599 5.8291 11.7397 4.91235 11.7397 3.85352C11.7397 2.79492 11.36 1.87817 10.6107 1.12866C9.86145 0.379639 8.9447 0 7.88599 0C6.82703 0 5.9104 0.379639 5.16125 1.12891C4.41211 1.87793 4.03223 2.79468 4.03223 3.85352C4.03223 4.91235 4.41211 5.8291 5.16125 6.57837C5.91064 7.32739 6.82739 7.70728 7.88599 7.70728ZM5.82434 1.79175C6.39917 1.21704 7.07349 0.9375 7.88599 0.9375C8.69836 0.9375 9.3728 1.21704 9.94775 1.79175C10.5226 2.3667 10.8021 3.04126 10.8021 3.85352C10.8021 4.66602 10.5226 5.34033 9.94775 5.91528C9.3728 6.49023 8.69836 6.76953 7.88599 6.76953C7.07373 6.76953 6.39941 6.48999 5.82434 5.91528C5.24939 5.34033 4.96985 4.66602 4.96985 3.85352C4.96985 3.04126 5.24939 2.3667 5.82434 1.79175Z" fill="#000000" fill-opacity="1.000000" fill-rule="nonzero"/>
		<path id="Vector" d="M14.629 12.303C14.6074 11.9912 14.5637 11.6511 14.4994 11.292C14.4344 10.9302 14.3508 10.5881 14.2507 10.2756C14.1472 9.95239 14.0067 9.6333 13.8328 9.32764C13.6525 9.01025 13.4406 8.73389 13.2028 8.50635C12.9541 8.26855 12.6497 8.07715 12.2976 7.93774C11.9468 7.79883 11.558 7.72852 11.1421 7.72852C10.9788 7.72852 10.8208 7.79565 10.5157 7.99414C10.328 8.1167 10.1084 8.2583 9.86328 8.41479C9.65369 8.54834 9.36975 8.67358 9.01904 8.78687C8.67688 8.89746 8.32947 8.95361 7.98645 8.95361C7.64368 8.95361 7.29626 8.89746 6.95386 8.78687C6.60352 8.67358 6.31946 8.54858 6.11023 8.41504C5.86743 8.25977 5.64771 8.11816 5.45715 7.99414C5.15234 7.79541 4.99438 7.72852 4.83105 7.72852C4.41504 7.72852 4.02637 7.79883 3.67566 7.93774C3.32385 8.07715 3.01929 8.26831 2.77039 8.50659C2.53259 8.73413 2.32068 9.01025 2.1405 9.32764C1.9668 9.6333 1.82617 9.95239 1.72266 10.2756C1.62268 10.5884 1.53906 10.9302 1.47412 11.292C1.40967 11.6506 1.36609 11.991 1.34448 12.3035C1.32324 12.6089 1.3125 12.927 1.3125 13.2483C1.3125 14.0835 1.578 14.7595 2.10156 15.2583C2.61865 15.7502 3.30273 15.9998 4.13489 15.9998L11.839 15.9998C12.6709 15.9998 13.355 15.7502 13.8722 15.2583C14.3959 14.76 14.6614 14.0835 14.6614 13.248C14.6613 12.9258 14.6504 12.6077 14.629 12.303ZM13.2257 14.5789C12.884 14.9041 12.4304 15.0623 11.8389 15.0623L4.13489 15.0623C3.54321 15.0623 3.0896 14.9041 2.74805 14.5791C2.41296 14.26 2.25012 13.8247 2.25012 13.2483C2.25012 12.9485 2.26001 12.6523 2.27979 12.3682C2.29907 12.0894 2.3385 11.7832 2.39697 11.4578C2.45471 11.1362 2.5282 10.8347 2.6156 10.5615C2.69946 10.2998 2.81384 10.0405 2.95569 9.79077C3.09106 9.55273 3.24683 9.34839 3.4187 9.18384C3.57947 9.03003 3.7821 8.90405 4.02087 8.80957C4.2417 8.72217 4.48987 8.67432 4.75928 8.66699C4.79211 8.68457 4.85059 8.71777 4.94531 8.77954C5.13806 8.90527 5.36023 9.04858 5.60583 9.20532C5.88269 9.38184 6.23938 9.54126 6.66553 9.67896C7.1012 9.81982 7.54553 9.89136 7.98657 9.89136C8.42761 9.89136 8.87207 9.81982 9.3075 9.67896C9.73401 9.54126 10.0906 9.38184 10.3678 9.20508C10.6191 9.04443 10.8351 8.90527 11.0278 8.77954C11.1226 8.71802 11.181 8.68457 11.2139 8.66699C11.4834 8.67432 11.7316 8.72217 11.9525 8.80957C12.1912 8.90405 12.3938 9.03003 12.5546 9.18384C12.7264 9.34839 12.8822 9.55249 13.0176 9.79077C13.1595 10.0405 13.274 10.2998 13.3578 10.5615C13.4453 10.835 13.5189 11.1365 13.5765 11.4575C13.6349 11.7837 13.6744 12.0901 13.6937 12.3684L13.6937 12.3687C13.7136 12.6516 13.7236 12.9475 13.7238 13.2483C13.7236 13.8247 13.5608 14.26 13.2257 14.5789Z" fill="#000000" fill-opacity="1.000000" fill-rule="nonzero"/>
	</g>
</svg>
